# xmcd
#
# Track frame offsets:
#	150
#	11702
#	23596
#	35637
#	44838
#	55369
#	66865
#	84798
#	99239
#	109085
#	120461
#	132301
#	141765
#	151297
#	162441
#	173931
#	185070
#	195128
#	211322
#	223516
#	236112
#	247764
#	258459
#	269273
#	288878
#
# Disc length: 4029 seconds
#
# Revision: 0
# Processed by: cddbd v1.5.2PL0 Copyright (c) Steve Scherf et al.
# Submitted via: FairStars CD Ripper 1.90
#
DISCID=610fbb19
DTITLE=Various Artist - Country Faithfuls Disc 2
DYEAR=1960
DGENRE=Country
TTITLE0=Lewis Pruit - Softly And Tenderly
TTITLE1=Ray Price - I Wish I Could Fall In Love
TTITLE2=George Hamilton IV - Before This Day Ends
TTITLE3=Jim Reeves - I Knew One
TTITLE4=Wilma Lee and Stony Cooper - There's A Big Wheel
TTITLE5=Faron Young - You're Old Used To Be
TTITLE6=Marty Robins - Big Iron
TTITLE7=Johnny Horton - Sink The Bismark
TTITLE8=Jim Reeves - Blue Boy
TTITLE9=Jimmy Newman - A Lovely Work Of Art
TTITLE10=Hank Snow - Millers Cave
TTITLE11=Hank Thompson - A Six Pack To Go
TTITLE12=Johnny Cash - What Do I Care
TTITLE13=Lewis Pruit - Timbrook
TTITLE14=Jim Reeves - I Missed Me
TTITLE15=Johnny Cash - Seasons Of My Heart
TTITLE16=Ernie Ashworth - You Can't Pick A Rose In December
TTITLE17=Lonnie Erving - Pinball Machine
TTITLE18=Jeanne Black - Hell Have To Stay
TTITLE19=Johnny Horton - North To Alaska
TTITLE20=Charlie Walker - Who'll Buy The Wine
TTITLE21=Faron Young - Face To The Wall
TTITLE22=Lou Smith - Cruel Love
TTITLE23=Marty Robins - El Paso
TTITLE24=Claude Gray - Family Bible
EXTD=
EXTT0=
EXTT1=
EXTT2=
EXTT3=
EXTT4=
EXTT5=
EXTT6=
EXTT7=
EXTT8=
EXTT9=
EXTT10=
EXTT11=
EXTT12=
EXTT13=
EXTT14=
EXTT15=
EXTT16=
EXTT17=
EXTT18=
EXTT19=
EXTT20=
EXTT21=
EXTT22=
EXTT23=
EXTT24=
PLAYORDER=
